# xmcd CD database file
#
# Track frame offsets:
#	150
#	17008
#	41755
#	71434
#	93578
#	113580
#	130007
#	153569
#	165443
#	179171
#	193748
#
# Disc length: 2842 seconds
#
# Revision: 1
# Processed by: cddbd v1.5.2PL0 Copyright (c) Steve Scherf et al.
# Submitted via: CDex 1.51
#
DISCID=900b180b
DTITLE=Music at the Crossroads - '' The Unique Irish Music Experience ''
DYEAR=2007
DGENRE=Irish Music
TTITLE0=Monaghan's - Traditional
TTITLE1=The Last Leviathan
TTITLE2=The Two William Davies - Traditional
TTITLE3=The Bells of Tipperary - Behaviour
TTITLE4=Mary and the Soldier - Traditional
TTITLE5=Cuimhne an Phiobaire - Traditional
TTITLE6=Czardas - Traditional
TTITLE7=Ned of the Hill - Traditional
TTITLE8=Minor Swing - Traditional
TTITLE9=Crooked Jack
TTITLE10=Jigs
EXTD=YEAR: 2007
EXTT0=
EXTT1=
EXTT2=
EXTT3=
EXTT4=
EXTT5=
EXTT6=
EXTT7=
EXTT8=
EXTT9=
EXTT10=
PLAYORDER=
